<svg width="31" height="30" viewBox="0 0 31 30" fill="none" xmlns="http://www.w3.org/2000/svg">
<path d="M24.5 24C25.2956 24 26.0587 24.3161 26.6213 24.8787C27.1839 25.4413 27.5 26.2044 27.5 27C27.5 27.7956 27.1839 28.5587 26.6213 29.1213C26.0587 29.6839 25.2956 30 24.5 30C23.7044 30 22.9413 29.6839 22.3787 29.1213C21.8161 28.5587 21.5 27.7956 21.5 27C21.5 25.335 22.835 24 24.5 24ZM0.5 0H5.405L6.815 3H29C29.3978 3 29.7794 3.15804 30.0607 3.43934C30.342 3.72064 30.5 4.10218 30.5 4.5C30.5 4.755 30.425 5.01 30.32 5.25L24.95 14.955C24.44 15.87 23.45 16.5 22.325 16.5H11.15L9.8 18.945L9.755 19.125C9.755 19.2245 9.79451 19.3198 9.86483 19.3902C9.93516 19.4605 10.0305 19.5 10.13 19.5H27.5V22.5H9.5C8.70435 22.5 7.94129 22.1839 7.37868 21.6213C6.81607 21.0587 6.5 20.2956 6.5 19.5C6.5 18.975 6.635 18.48 6.86 18.06L8.9 14.385L3.5 3H0.5V0ZM9.5 24C10.2956 24 11.0587 24.3161 11.6213 24.8787C12.1839 25.4413 12.5 26.2044 12.5 27C12.5 27.7956 12.1839 28.5587 11.6213 29.1213C11.0587 29.6839 10.2956 30 9.5 30C8.70435 30 7.94129 29.6839 7.37868 29.1213C6.81607 28.5587 6.5 27.7956 6.5 27C6.5 25.335 7.835 24 9.5 24ZM23 13.5L27.17 6H8.21L11.75 13.5H23Z" fill="#272424"/>
</svg>
