<svg width="432" height="24" viewBox="0 0 432 24" fill="none" xmlns="http://www.w3.org/2000/svg">
<path d="M0 12H183" stroke="#3F3F3F" stroke-opacity="0.2"/>
<path d="M220.125 3C221.792 3 223.188 3.61667 224.313 4.85C225.438 6.08333 226.001 7.55 226 9.25C226 9.55 225.983 9.846 225.95 10.138C225.917 10.43 225.858 10.7173 225.775 11H219.525L217.825 8.45C217.742 8.31667 217.625 8.20833 217.475 8.125C217.325 8.04167 217.167 8 217 8C216.783 8 216.587 8.06667 216.412 8.2C216.237 8.33333 216.116 8.5 216.05 8.7L214.7 12.75L213.825 11.45C213.742 11.3167 213.625 11.2083 213.475 11.125C213.325 11.0417 213.167 11 213 11H206.225C206.142 10.7167 206.083 10.429 206.05 10.137C206.017 9.845 206 9.55767 206 9.275C206 7.55833 206.558 6.08333 207.675 4.85C208.792 3.61667 210.183 3 211.85 3C212.65 3 213.404 3.15833 214.113 3.475C214.822 3.79167 215.451 4.23333 216 4.8C216.533 4.23333 217.154 3.79167 217.863 3.475C218.572 3.15833 219.326 3 220.125 3ZM216 21C215.7 21 215.412 20.9457 215.137 20.837C214.862 20.7283 214.616 20.566 214.4 20.35L207.7 13.625C207.6 13.525 207.508 13.425 207.425 13.325C207.342 13.225 207.258 13.1167 207.175 13H212.45L214.15 15.55C214.233 15.6833 214.35 15.7917 214.5 15.875C214.65 15.9583 214.808 16 214.975 16C215.192 16 215.392 15.9333 215.575 15.8C215.758 15.6667 215.883 15.5 215.95 15.3L217.3 11.25L218.15 12.55C218.25 12.6833 218.375 12.7917 218.525 12.875C218.675 12.9583 218.833 13 219 13H224.8L224.55 13.3L224.3 13.6L217.575 20.35C217.358 20.5667 217.117 20.7293 216.85 20.838C216.583 20.9467 216.3 21.0007 216 21Z" fill="#3F3F3F" fill-opacity="0.48"/>
<path d="M249 12H432" stroke="#3F3F3F" stroke-opacity="0.2"/>
</svg>
